<?xml version="1.0" standalone="no"?>
<!DOCTYPE svg PUBLIC "-//W3C//DTD SVG 20010904//EN" "http://www.w3.org/TR/2001/REC-SVG-20010904/DTD/svg10.dtd">
<svg version="1.0" xmlns="http://www.w3.org/2000/svg" width="512.000000pt" height="512.000000pt"
    viewBox="0 0 512.000000 512.000000" preserveAspectRatio="xMidYMid meet">

    <g transform="translate(0.000000,512.000000) scale(0.100000,-0.100000)" fill="#08774e" stroke="none">
        <path d="M1685 4690 c-65 -43 -65 -39 -65 -515 0 -409 1 -432 20 -462 43 -72
4 -68 702 -71 l628 -3 0 -177 0 -177 -612 -612 -613 -613 -175 175 c-175 174
-177 175 -221 175 -26 0 -55 -8 -72 -18 -24 -16 -1191 -1680 -1254 -1787 -28
-49 -29 -90 -3 -132 41 -68 -180 -63 2540 -63 2720 0 2499 -5 2540 63 24 38
25 78 5 117 -8 16 -434 626 -945 1354 l-930 1325 0 666 c0 739 2 713 -65 755
-32 20 -48 20 -741 20 -689 0 -710 -1 -739 -20z m1285 -510 l0 -280 -545 0
-545 0 0 280 0 280 545 0 545 0 0 -280z m941 -2325 c452 -643 824 -1176 826
-1182 4 -10 -435 -13 -2177 -13 -1915 0 -2181 2 -2177 15 5 12 959 1389 973
1404 2 3 75 -66 162 -151 168 -167 198 -186 265 -167 24 6 192 169 662 639
346 346 633 629 637 628 4 -2 377 -529 829 -1173z" />
    </g>
</svg>