<?xml version="1.0" standalone="no"?>
<!DOCTYPE svg PUBLIC "-//W3C//DTD SVG 20010904//EN" "http://www.w3.org/TR/2001/REC-SVG-20010904/DTD/svg10.dtd">
<svg version="1.0" xmlns="http://www.w3.org/2000/svg" width="512.000000pt" height="512.000000pt"
    viewBox="0 0 512.000000 512.000000" preserveAspectRatio="xMidYMid meet">

    <g transform="translate(0.000000,512.000000) scale(0.100000,-0.100000)" fill="#08774e" stroke="none">
        <path d="M2380 5114 c-19 -2 -78 -9 -130 -14 -636 -70 -1267 -421 -1684 -940
-634 -788 -744 -1873 -280 -2768 129 -249 263 -431 469 -637 261 -261 541
-446 875 -579 674 -267 1450 -226 2098 110 249 129 431 263 637 469 206 206
340 388 469 637 367 708 379 1522 34 2251 l-51 107 121 124 c67 68 126 136
132 151 27 70 0 153 -61 189 -14 8 -123 32 -240 52 -118 19 -220 38 -228 40
-10 3 85 105 266 287 154 155 288 296 297 314 22 44 20 88 -5 133 -39 70 -124
98 -192 64 -18 -9 -159 -142 -314 -297 -183 -182 -284 -276 -287 -266 -2 7
-21 110 -40 228 -20 117 -44 226 -52 240 -36 61 -119 88 -189 61 -15 -6 -83
-65 -151 -132 l-124 -121 -107 51 c-245 116 -473 185 -748 228 -95 14 -441 27
-515 18z m381 -304 c147 -15 329 -54 467 -99 127 -42 292 -109 292 -120 0 -3
-102 -108 -227 -233 l-228 -226 -92 23 c-570 147 -1161 -15 -1577 -431 -438
-438 -595 -1085 -405 -1667 167 -510 556 -899 1066 -1066 320 -105 686 -105
1006 0 510 167 899 556 1066 1066 96 293 105 610 26 916 l-23 92 226 228 c125
125 230 227 233 227 11 0 78 -165 120 -292 237 -723 76 -1526 -429 -2128 -371
-443 -934 -736 -1517 -790 -598 -55 -1196 135 -1665 528 -443 371 -736 934
-790 1517 -55 598 135 1196 528 1665 463 553 1213 861 1923 790z m1259 -377
l28 -168 -316 -317 c-174 -175 -319 -314 -323 -310 -3 4 -18 83 -34 176 l-27
169 318 318 c176 176 320 315 322 310 2 -5 16 -85 32 -178z m440 -418 c85 -15
156 -27 157 -29 1 -1 -141 -145 -316 -320 l-318 -318 -164 27 c-90 14 -171 28
-178 31 -10 3 96 116 304 324 251 251 324 318 340 315 11 -3 90 -16 175 -30z
m-1715 -120 c90 -13 224 -46 297 -74 32 -12 29 0 72 -256 l35 -200 -88 -88
-88 -89 -69 35 c-92 47 -143 63 -243 77 -375 55 -737 -193 -832 -570 -18 -71
-18 -269 0 -340 69 -274 287 -492 561 -561 71 -18 269 -18 340 0 269 68 485
280 556 546 22 81 28 195 14 286 -14 100 -30 151 -77 243 l-35 69 89 88 88 88
200 -35 c110 -18 210 -36 223 -39 25 -6 32 -21 68 -145 136 -467 5 -971 -345
-1321 -397 -397 -972 -506 -1491 -283 -300 129 -565 394 -694 694 -184 427
-143 901 111 1285 88 133 245 290 378 378 277 182 609 258 930 212z m-95 -895
c25 -6 58 -16 73 -22 l28 -11 -154 -156 c-160 -161 -187 -198 -187 -252 0 -72
77 -149 149 -149 54 0 91 27 252 187 l155 154 12 -27 c7 -14 18 -56 24 -93 50
-292 -217 -561 -508 -513 -196 32 -344 180 -376 376 -50 299 237 571 532 506z" />
    </g>
</svg>