<?xml version="1.0" standalone="no"?>
<!DOCTYPE svg PUBLIC "-//W3C//DTD SVG 20010904//EN" "http://www.w3.org/TR/2001/REC-SVG-20010904/DTD/svg10.dtd">
<svg version="1.0" xmlns="http://www.w3.org/2000/svg" width="512.000000pt" height="512.000000pt"
    viewBox="0 0 512.000000 512.000000" preserveAspectRatio="xMidYMid meet">

    <g transform="translate(0.000000,512.000000) scale(0.100000,-0.100000)" fill="#08774e" stroke="none">
        <path d="M1040 5104 c-169 -36 -323 -158 -398 -315 -22 -46 -45 -108 -51 -137
-17 -83 -14 -435 4 -507 27 -105 73 -183 158 -268 l78 -78 -3 -52 -3 -52 -275
-83 c-151 -45 -298 -94 -326 -107 -100 -49 -187 -161 -213 -276 -6 -26 -11
-223 -11 -481 l0 -438 1097 0 1098 0 -210 -210 -210 -210 -54 54 -54 54 -87
-58 -88 -59 -63 27 c-35 15 -69 30 -75 34 -6 4 -19 52 -29 107 l-18 101 -233
0 -233 0 -11 -57 c-7 -32 -16 -80 -22 -106 -6 -30 -16 -51 -26 -54 -10 -3 -41
-16 -71 -30 l-55 -24 -83 56 c-45 30 -86 55 -90 55 -4 0 -81 -73 -170 -162
l-161 -161 58 -87 58 -86 -30 -69 c-16 -38 -33 -72 -39 -75 -5 -4 -52 -14
-104 -24 l-95 -18 0 -233 0 -234 57 -11 c165 -34 146 -22 179 -103 l30 -72
-59 -89 -59 -89 165 -164 164 -165 89 59 89 59 72 -30 72 -30 12 -55 c6 -31
15 -77 21 -103 l10 -48 233 0 233 0 18 95 c10 52 20 99 24 104 3 6 37 23 75
39 l69 30 86 -58 87 -58 161 161 c89 89 162 166 162 170 0 4 -25 45 -55 90
l-56 83 24 55 c14 30 27 61 30 71 3 10 24 20 54 26 26 6 74 15 106 22 l57 11
0 233 0 233 -101 18 c-55 10 -103 23 -107 29 -4 6 -19 40 -34 75 l-27 63 59
88 58 87 -54 54 -54 54 239 239 240 240 39 -12 c47 -14 102 -15 134 -3 21 8
33 -3 121 -105 l98 -114 -16 -29 c-22 -44 -20 -145 6 -197 47 -98 163 -158
266 -136 175 36 259 233 161 375 l-20 27 259 460 c212 377 261 459 276 454 31
-10 124 16 166 46 22 16 52 50 66 75 l27 45 343 0 344 0 17 -35 c24 -51 90
-103 151 -121 122 -36 259 39 301 165 38 109 -22 242 -133 296 -56 27 -157 26
-211 -2 -43 -23 -98 -79 -116 -119 l-11 -24 -343 0 -344 0 -20 39 c-26 52 -83
98 -148 118 -101 32 -216 -14 -275 -109 -48 -77 -49 -183 -1 -253 l24 -36
-251 -447 c-138 -246 -255 -451 -260 -456 -5 -5 -30 -11 -56 -13 -26 -1 -56
-4 -65 -5 -12 -2 -50 35 -112 107 l-94 110 14 34 c31 75 8 197 -49 260 -75 81
-251 95 -329 25 -16 -15 -17 0 -20 278 l-3 294 -34 69 c-39 79 -104 147 -177
187 -27 14 -174 63 -326 109 l-278 83 0 61 0 62 73 74 c129 132 167 239 167
472 l0 149 43 48 c34 38 157 251 157 273 0 3 -44 20 -97 38 -144 47 -219 80
-324 141 -108 62 -160 83 -243 97 -78 14 -146 13 -226 -5z m251 -170 c30 -9
96 -41 147 -72 51 -30 129 -70 173 -87 44 -18 80 -36 81 -40 0 -4 -13 -26 -30
-50 -63 -90 -208 -154 -318 -141 -79 9 -127 30 -241 105 l-106 69 -61 -28
c-82 -37 -176 -62 -176 -47 0 7 13 39 28 72 47 98 150 188 255 220 59 19 183
18 248 -1z m-232 -453 c42 -26 103 -58 136 -71 82 -31 218 -38 303 -16 35 9
66 16 68 16 2 0 4 -31 4 -69 0 -146 -38 -249 -124 -335 -163 -162 -424 -165
-583 -6 -91 91 -127 204 -121 380 l3 84 65 12 c36 7 88 21 115 32 28 11 52 20
54 21 2 1 38 -21 80 -48z m116 -758 c55 3 110 8 123 12 21 7 22 4 22 -38 0
-55 -30 -95 -93 -126 -74 -36 -131 -23 -201 45 -30 30 -36 42 -36 78 l0 44 43
-10 c23 -5 87 -8 142 -5z m-253 -395 l67 -203 -34 -305 c-19 -168 -35 -313
-35 -322 0 -16 -13 -18 -130 -18 l-130 0 0 330 0 330 -80 0 -80 0 0 -330 0
-330 -165 0 -165 0 0 362 c0 345 1 364 21 404 37 77 84 109 226 153 254 79
418 129 428 130 6 1 41 -90 77 -201z m803 123 c145 -44 276 -86 292 -94 36
-19 86 -72 109 -117 17 -32 19 -67 22 -397 l3 -363 -165 0 -166 0 0 330 0 330
-85 0 -85 0 0 -330 0 -330 -128 0 -127 0 -36 326 -36 327 66 198 c36 110 67
199 69 199 1 0 121 -36 267 -79z m-495 -68 c0 -5 -12 -43 -26 -85 -22 -68 -29
-78 -49 -78 -20 0 -27 10 -49 78 -14 42 -26 80 -26 85 0 4 34 7 75 7 41 0 75
-3 75 -7z m2525 -89 c23 -9 48 -62 41 -90 -16 -62 -93 -85 -136 -39 -61 65 10
161 95 129z m1172 -16 c33 -31 32 -90 -3 -117 -37 -29 -79 -27 -109 5 -70 76
37 183 112 112z m-3733 -488 c15 -140 29 -267 32 -282 l6 -28 -74 0 -74 0 32
288 c18 158 33 289 33 292 1 2 5 0 9 -5 5 -6 21 -125 36 -265z m1319 -241 c26
-12 47 -47 47 -80 0 -31 -44 -69 -81 -69 -72 0 -106 84 -54 135 26 27 51 31
88 14z m-1338 -591 c3 -13 11 -52 18 -86 l12 -64 86 -27 c47 -15 113 -43 147
-61 l61 -34 70 47 c39 26 74 47 78 47 10 0 133 -122 133 -132 0 -5 -21 -40
-47 -79 l-47 -70 34 -61 c18 -34 46 -100 61 -147 l27 -86 64 -12 c120 -24 108
-10 108 -122 l0 -98 -40 -7 c-22 -3 -62 -11 -88 -16 l-47 -11 -20 -67 c-10
-37 -36 -102 -58 -145 l-39 -78 47 -75 48 -76 -68 -68 -68 -69 -73 50 -74 49
-78 -39 c-43 -22 -110 -49 -148 -61 l-71 -21 -13 -72 c-7 -40 -15 -78 -17 -84
-4 -9 -34 -13 -103 -13 l-97 0 -13 75 c-7 41 -18 81 -24 88 -6 7 -38 21 -71
31 -33 10 -95 36 -139 58 l-78 39 -69 -45 c-38 -25 -72 -46 -76 -46 -10 0
-133 122 -133 132 0 5 21 39 46 77 l45 69 -39 78 c-22 44 -48 106 -58 139 -10
33 -24 65 -31 71 -7 6 -47 17 -88 24 l-75 13 0 97 c0 69 4 99 13 103 6 2 44
10 84 17 l72 13 21 71 c12 38 39 105 61 148 l39 78 -49 74 -50 73 69 68 69 69
70 -47 c39 -26 74 -47 77 -47 4 0 41 17 83 38 42 21 106 47 143 57 l67 20 11
47 c5 26 13 66 16 88 l7 40 98 0 c94 0 99 -1 104 -22z m1849 1 c54 -43 21
-139 -49 -139 -82 0 -112 96 -46 147 24 19 65 15 95 -8z" />
        <path d="M942 1636 c-74 -18 -204 -84 -195 -99 3 -7 24 -38 46 -69 l40 -57 57
29 c202 102 456 16 552 -187 56 -118 55 -250 -2 -363 l-29 -57 57 -40 c31 -22
62 -43 69 -47 16 -9 87 139 102 212 38 187 -22 386 -159 522 -74 75 -191 139
-288 159 -69 14 -183 13 -250 -3z" />
        <path d="M577 1368 c-67 -117 -95 -289 -67 -416 46 -212 230 -396 442 -442
127 -28 299 0 416 67 l42 25 -37 52 c-60 85 -54 82 -115 52 -161 -79 -348 -48
-474 78 -126 126 -157 313 -78 474 30 61 33 55 -52 115 l-52 37 -25 -42z" />
        <path d="M992 1307 c-50 -16 -128 -91 -147 -142 -26 -67 -17 -160 21 -221 60
-97 191 -141 299 -99 55 20 127 97 143 153 58 194 -123 371 -316 309z m152
-199 c24 -56 -1 -102 -62 -114 -26 -5 -36 -1 -63 25 -26 27 -30 37 -25 63 3
18 13 40 22 49 34 38 108 25 128 -23z" />
        <path d="M3564 5101 c-23 -10 -52 -34 -65 -52 -21 -30 -24 -47 -27 -146 l-4
-113 -552 0 -552 0 -44 -22 c-33 -17 -51 -35 -67 -68 -23 -44 -23 -48 -23
-487 0 -486 0 -486 59 -536 45 -38 90 -47 229 -47 l122 0 0 -160 c0 -88 2
-160 5 -160 3 0 101 72 218 159 l212 160 346 3 346 3 36 25 c58 39 77 89 77
203 l0 97 125 0 125 0 2 -161 3 -160 214 160 214 161 196 0 c212 0 254 7 302
47 59 50 59 50 59 536 0 439 0 443 -22 487 -17 33 -35 51 -68 68 l-44 22 -691
0 c-651 0 -692 -1 -731 -19z m1386 -561 l0 -410 -216 0 -217 0 -107 -80 c-59
-44 -110 -80 -114 -80 -3 0 -6 36 -6 80 l0 80 -205 0 -205 0 0 268 c0 258 -1
268 -23 307 -30 54 -92 85 -169 85 l-58 0 0 80 0 80 660 0 660 0 0 -410z
m-1230 -330 l0 -410 -345 0 -346 0 -107 -81 -107 -81 -3 81 -3 81 -209 0 -210
0 0 410 0 410 665 0 665 0 0 -410z" />
        <path d="M4210 4540 l0 -80 85 0 85 0 0 80 0 80 -85 0 -85 0 0 -80z" />
        <path d="M4540 4540 l0 -80 85 0 85 0 0 80 0 80 -85 0 -85 0 0 -80z" />
        <path d="M2560 4375 l0 -85 495 0 495 0 0 85 0 85 -495 0 -495 0 0 -85z" />
        <path d="M2560 4045 l0 -85 495 0 495 0 0 85 0 85 -495 0 -495 0 0 -85z" />
        <path d="M4290 1530 l0 -1360 -80 0 -80 0 0 1155 0 1155 -247 -2 -248 -3 -3
-1152 -2 -1153 -80 0 -80 0 0 535 0 535 -250 0 -250 0 0 -535 0 -535 -80 0
-80 0 0 700 0 700 -250 0 -250 0 0 -700 0 -700 -80 0 -80 0 0 -85 0 -85 1485
0 1485 0 0 85 0 85 -165 0 -165 0 0 1360 0 1360 -250 0 -250 0 0 -1360z m330
-85 l0 -1275 -80 0 -80 0 0 1275 0 1275 80 0 80 0 0 -1275z m-660 -205 l0
-1070 -80 0 -80 0 0 1070 0 1070 80 0 80 0 0 -1070z m-1320 -455 l0 -615 -80
0 -80 0 0 615 0 615 80 0 80 0 0 -615z m660 -165 l0 -450 -80 0 -80 0 0 450 0
450 80 0 80 0 0 -450z" />
        <path d="M1820 85 l0 -85 80 0 80 0 0 85 0 85 -80 0 -80 0 0 -85z" />
    </g>
</svg>