<?xml version="1.0" standalone="no"?>
<!DOCTYPE svg PUBLIC "-//W3C//DTD SVG 20010904//EN" "http://www.w3.org/TR/2001/REC-SVG-20010904/DTD/svg10.dtd">
<svg version="1.0" xmlns="http://www.w3.org/2000/svg" width="512.000000pt" height="512.000000pt"
    viewBox="0 0 512.000000 512.000000" preserveAspectRatio="xMidYMid meet">

    <g transform="translate(0.000000,512.000000) scale(0.100000,-0.100000)" fill="#08774e" stroke="none">
        <path d="M2495 4794 c-44 -23 -643 -622 -666 -666 -23 -44 -24 -77 -5 -123 19
-44 1366 -1543 1414 -1573 48 -30 118 -26 161 9 49 40 1385 1532 1398 1562 17
37 16 82 -2 121 -20 42 -642 662 -678 675 -19 8 -284 11 -810 11 -689 -1 -786
-3 -812 -16z m356 -331 c-10 -27 -35 -94 -56 -150 l-38 -103 -216 0 -216 0
150 150 150 150 122 0 123 0 -19 -47z m629 -83 c26 -69 50 -135 54 -147 l7
-23 -230 0 c-127 0 -231 2 -231 5 0 3 69 189 99 268 l11 28 121 -3 122 -3 47
-125z m665 -20 l150 -150 -215 0 -215 0 -56 150 -57 150 122 0 121 0 150 -150z
m-1376 -517 c11 -38 61 -203 110 -368 50 -164 89 -300 87 -302 -2 -3 -252 272
-635 699 l-33 38 225 0 226 0 20 -67z m776 20 c-8 -27 -63 -209 -122 -405 -59
-197 -109 -358 -113 -358 -3 0 -45 132 -93 293 -48 160 -103 343 -121 405
l-34 112 248 0 249 0 -14 -47z m744 10 c-126 -145 -632 -703 -635 -701 -1 2
40 145 92 318 52 173 102 339 110 368 l15 52 226 0 225 0 -33 -37z" />
        <path d="M1912 2420 c-206 -26 -479 -116 -761 -251 l-124 -59 -454 0 c-435 0
-455 -1 -493 -20 -26 -13 -47 -34 -60 -60 -19 -38 -20 -58 -20 -670 0 -612 1
-632 20 -670 13 -26 34 -47 60 -60 38 -19 58 -20 525 -20 467 0 487 1 525 20
58 30 80 79 80 180 l0 81 48 -6 c212 -29 469 -110 713 -225 405 -191 630 -277
839 -321 128 -27 382 -32 495 -10 364 72 680 293 1109 776 75 84 312 378 619
765 125 158 117 229 -41 334 -130 86 -247 120 -407 120 -83 0 -129 -5 -188
-22 -174 -49 -267 -117 -448 -326 -149 -173 -130 -163 -269 -146 -329 41 -575
133 -906 338 -243 151 -363 207 -508 238 -89 19 -258 26 -354 14z m322 -315
c89 -24 205 -81 371 -185 454 -284 787 -387 1323 -407 144 -5 168 -9 195 -27
42 -28 57 -60 57 -121 0 -107 -56 -155 -180 -155 -244 0 -669 65 -996 151
-135 35 -180 37 -224 7 -38 -27 -70 -81 -70 -121 0 -38 23 -87 53 -116 58 -53
629 -175 966 -206 l75 -7 -35 -29 c-73 -61 -214 -152 -292 -189 -138 -65 -230
-84 -392 -85 -243 0 -449 63 -886 271 -243 115 -357 161 -514 209 -120 36
-314 78 -417 91 l-58 6 0 338 0 337 98 45 c227 106 427 175 587 203 96 17 255
13 339 -10z m2479 -95 c33 -10 36 -13 25 -29 -43 -59 -302 -381 -308 -381 -3
0 -20 20 -38 45 -35 49 -96 98 -160 127 l-43 19 31 39 c78 99 182 169 282 190
49 10 155 5 211 -10z m-3803 -650 l0 -450 -305 0 -305 0 0 450 0 450 305 0
305 0 0 -450z" />
    </g>
</svg>