<?xml version="1.0" standalone="no"?>
<!DOCTYPE svg PUBLIC "-//W3C//DTD SVG 20010904//EN" "http://www.w3.org/TR/2001/REC-SVG-20010904/DTD/svg10.dtd">
<svg version="1.0" xmlns="http://www.w3.org/2000/svg" width="512.000000pt" height="512.000000pt"
    viewBox="0 0 512.000000 512.000000" preserveAspectRatio="xMidYMid meet">

    <g transform="translate(0.000000,512.000000) scale(0.100000,-0.100000)" fill="#0a9c66" stroke="none">
        <path d="M342 4494 c-30 -8 -60 -18 -68 -22 -10 -5 312 -333 1131 -1152 l1144
-1144 68 60 c37 32 558 547 1157 1145 l1089 1086 -49 19 c-48 18 -113 19
-2234 21 -1877 2 -2193 0 -2238 -13z" />
        <path d="M24 4199 c-18 -52 -19 -116 -19 -1639 0 -1523 1 -1587 19 -1639 l18
-54 847 847 846 846 -846 846 -847 847 -18 -54z" />
        <path d="M4230 3405 l-845 -845 846 -846 846 -846 19 48 c18 47 19 109 22
1614 2 1564 1 1618 -31 1693 -12 27 -12 27 -857 -818z" />
        <path d="M1101 1496 l-844 -844 54 -18 c52 -18 130 -19 2249 -19 2119 0 2197
1 2249 19 l54 18 -844 844 c-464 464 -847 844 -850 844 -4 0 -120 -109 -259
-242 -139 -134 -269 -253 -289 -265 -50 -31 -97 -29 -152 6 -24 16 -150 135
-279 265 -129 130 -237 236 -240 236 -3 0 -385 -380 -849 -844z" />
    </g>
</svg>