<?xml version="1.0" standalone="no"?>
<!DOCTYPE svg PUBLIC "-//W3C//DTD SVG 20010904//EN" "http://www.w3.org/TR/2001/REC-SVG-20010904/DTD/svg10.dtd">
<svg version="1.0" xmlns="http://www.w3.org/2000/svg" width="512.000000pt" height="512.000000pt"
    viewBox="0 0 512.000000 512.000000" preserveAspectRatio="xMidYMid meet">

    <g transform="translate(0.000000,512.000000) scale(0.100000,-0.100000)" fill="#08774e" stroke="none">
        <path d="M2498 4561 c-53 -17 -98 -53 -126 -99 -26 -46 -27 -52 -30 -224 -4
-203 6 -253 61 -305 48 -46 89 -63 152 -63 101 0 184 66 206 164 17 79 8 373
-13 411 -21 39 -65 83 -101 101 -35 19 -113 26 -149 15z m97 -166 c24 -23 25
-28 25 -177 0 -176 -7 -198 -65 -198 -58 0 -65 22 -65 198 0 149 1 154 25 177
13 14 31 25 40 25 9 0 27 -11 40 -25z" />
        <path d="M1650 4379 c-95 -38 -158 -156 -130 -248 13 -46 155 -295 192 -336
62 -71 186 -85 268 -31 73 48 110 136 92 217 -12 50 -149 296 -191 343 -52 57
-161 83 -231 55z m128 -166 c11 -16 50 -81 87 -146 73 -128 78 -157 29 -179
-49 -23 -71 -3 -152 137 -45 78 -75 142 -75 159 -1 58 76 78 111 29z" />
        <path d="M3295 4372 c-22 -11 -52 -32 -66 -48 -39 -42 -178 -290 -192 -341
-23 -86 26 -186 114 -231 35 -19 56 -23 106 -20 110 7 145 43 290 307 40 72
46 92 46 141 0 72 -31 132 -91 174 -55 39 -146 47 -207 18z m121 -140 c20 -13
34 -50 27 -69 -4 -10 -40 -75 -81 -146 -78 -135 -97 -151 -147 -129 -48 22
-43 51 36 189 39 70 79 136 87 146 15 17 58 23 78 9z" />
        <path d="M821 3893 c-34 -29 -821 -1403 -821 -1434 0 -15 8 -36 18 -48 9 -11
142 -93 295 -181 197 -114 286 -160 309 -160 23 0 40 10 67 39 35 38 37 39 63
25 24 -13 26 -18 18 -40 -13 -34 -13 -114 2 -155 22 -65 102 -191 145 -228 23
-21 62 -44 85 -50 43 -12 43 -12 44 -61 1 -54 36 -135 99 -231 60 -90 141
-134 235 -127 l48 3 6 -35 c7 -43 97 -203 138 -247 48 -50 119 -76 192 -71 34
3 67 7 75 9 8 3 17 -11 25 -36 17 -54 91 -182 130 -223 63 -68 171 -98 252
-72 54 18 192 98 236 138 l36 33 119 -69 c163 -96 192 -109 245 -117 62 -9
143 15 193 58 43 36 138 198 150 254 l6 31 52 -24 c37 -17 70 -24 113 -24 114
0 177 45 254 180 27 49 54 109 61 133 l11 45 56 4 c67 5 123 30 166 73 49 50
125 195 138 264 10 51 15 61 32 61 74 1 156 79 226 216 40 78 45 96 45 154 0
46 -6 77 -21 106 l-20 42 28 16 c15 10 28 13 28 7 0 -5 15 -26 34 -45 24 -26
42 -36 65 -36 22 0 112 47 308 160 153 88 286 170 296 181 9 12 17 33 17 48 0
31 -787 1405 -821 1434 -38 31 -70 21 -270 -94 -410 -235 -399 -228 -399 -284
0 -14 7 -39 15 -55 l15 -29 -71 -42 c-133 -77 -174 -92 -259 -92 -62 0 -89 5
-135 27 -62 28 -86 32 -115 16 -23 -12 -39 -59 -29 -86 22 -60 146 -106 284
-106 105 0 167 18 284 86 42 24 86 48 98 54 20 11 35 -12 313 -494 160 -278
290 -507 288 -508 -1 -2 -26 -15 -53 -31 l-50 -28 -490 283 c-270 156 -531
307 -582 337 l-92 53 16 46 c19 55 6 96 -36 114 -46 19 -77 -1 -107 -67 -48
-111 -122 -162 -232 -163 -69 0 -117 19 -174 69 -90 78 -160 80 -284 9 -100
-57 -143 -71 -218 -70 -103 2 -206 66 -255 161 -7 13 -9 27 -4 31 4 5 160 96
346 203 217 126 356 200 389 207 72 18 163 8 237 -25 72 -33 105 -28 130 17
34 60 -30 118 -170 154 -80 20 -201 15 -279 -13 -30 -11 -165 -84 -298 -162
-180 -104 -253 -141 -277 -141 -57 0 -149 35 -264 100 l-111 62 15 28 c38 73
12 116 -108 180 -55 29 -70 33 -94 25 -35 -13 -58 -53 -49 -88 5 -22 42 -54
94 -83 7 -4 -720 -1249 -729 -1246 -23 6 -401 228 -405 238 -4 10 684 1214
707 1239 7 6 20 4 40 -8 65 -37 132 -11 132 53 0 39 -14 55 -97 100 -78 44
-113 49 -145 23z m3765 -782 c195 -338 353 -618 351 -624 -5 -15 -411 -247
-418 -239 -23 27 -719 1247 -712 1250 4 2 96 54 203 117 107 63 201 113 208
112 8 -1 173 -278 368 -616z m-3083 125 c61 -35 123 -67 135 -71 24 -7 24 -7
4 -28 -54 -60 -57 -133 -10 -216 72 -127 202 -216 334 -229 115 -12 176 1 299
63 61 31 114 55 118 55 5 0 27 -16 50 -35 73 -63 139 -88 238 -93 103 -5 166
11 243 63 44 29 52 32 70 20 12 -7 257 -149 546 -315 289 -167 561 -324 606
-351 78 -47 104 -76 104 -119 0 -29 -81 -179 -108 -201 -54 -42 -77 -33 -413
162 -172 99 -325 183 -340 186 -62 12 -104 -81 -56 -124 12 -11 149 -93 303
-183 184 -106 286 -171 295 -187 7 -13 13 -38 12 -56 -1 -39 -74 -169 -111
-198 -49 -38 -83 -25 -393 155 -158 91 -296 166 -308 166 -29 0 -71 -43 -71
-72 0 -41 25 -63 157 -138 335 -192 341 -197 354 -240 12 -39 10 -44 -32 -127
-85 -165 -94 -165 -402 12 -128 74 -244 135 -256 135 -29 0 -71 -43 -71 -72 0
-40 25 -63 140 -129 158 -90 169 -119 96 -254 -47 -87 -88 -120 -138 -111 -15
3 -90 42 -167 87 l-141 81 0 69 c0 177 -126 314 -301 327 l-66 5 -7 59 c-17
165 -146 286 -314 294 l-54 2 -4 58 c-7 108 -79 216 -176 265 -24 12 -44 23
-46 24 -2 2 4 27 12 56 9 29 16 69 16 89 0 52 -28 141 -53 168 -27 29 -79 30
-107 0 -24 -26 -25 -49 -4 -105 23 -58 12 -123 -27 -168 -17 -19 -100 -74
-188 -125 -215 -123 -234 -122 -316 18 -52 89 -58 136 -22 176 21 24 309 196
328 196 6 0 21 11 34 25 31 30 32 71 3 102 -38 41 -70 31 -251 -73 -172 -98
-180 -101 -226 -65 l-23 18 292 506 c161 279 294 507 296 507 2 0 55 -29 117
-64z m108 -1428 c93 -51 110 -199 33 -270 -11 -9 -71 -46 -133 -82 -164 -94
-193 -89 -270 45 -51 89 -56 108 -38 151 12 29 35 46 133 103 160 92 193 98
275 53z m374 -357 c64 -37 97 -121 75 -194 -16 -56 -57 -93 -177 -160 -151
-85 -181 -80 -253 45 -53 92 -62 144 -29 181 25 27 203 133 248 148 35 11 99
2 136 -20z m362 -352 c107 -52 126 -205 35 -281 -18 -15 -66 -45 -108 -68
-121 -67 -159 -52 -232 93 -39 76 -42 85 -32 120 12 40 38 61 158 124 74 39
118 42 179 12z" />
        <path d="M4057 3503 c-8 -10 -19 -30 -22 -45 -6 -22 -1 -33 24 -59 26 -25 37
-30 59 -24 15 3 35 14 45 22 23 22 22 78 -3 103 -25 25 -81 26 -103 3z" />
        <path d="M960 3500 c-25 -25 -26 -81 -2 -103 9 -8 29 -19 44 -22 22 -6 33 -1
59 24 25 26 30 37 24 59 -3 15 -14 35 -22 45 -22 23 -78 22 -103 -3z" />
    </g>
</svg>