<?xml version="1.0" standalone="no"?>
<!DOCTYPE svg PUBLIC "-//W3C//DTD SVG 20010904//EN" "http://www.w3.org/TR/2001/REC-SVG-20010904/DTD/svg10.dtd">
<svg version="1.0" xmlns="http://www.w3.org/2000/svg" width="512.000000pt" height="512.000000pt"
    viewBox="0 0 512.000000 512.000000" preserveAspectRatio="xMidYMid meet">

    <g transform="translate(0.000000,512.000000) scale(0.100000,-0.100000)" fill="#08774e" stroke="none">
        <path d="M2425 5074 c-485 -27 -907 -202 -1235 -511 -264 -248 -435 -569 -496
-933 -20 -114 -22 -396 -5 -520 51 -370 179 -769 366 -1142 82 -164 148 -272
297 -486 194 -279 289 -460 311 -589 11 -61 10 -63 -17 -88 -68 -63 -87 -187
-43 -277 l25 -51 -28 -39 c-71 -98 -57 -241 32 -324 78 -74 17 -69 862 -72
862 -3 833 -5 910 72 86 85 101 214 39 315 l-32 51 26 56 c21 47 25 66 21 118
-6 71 -23 109 -69 154 -68 67 -68 67 -446 70 l-343 3 0 799 0 800 85 0 85 0 0
-139 c0 -133 1 -141 24 -168 24 -28 24 -28 170 -31 l146 -3 0 -44 c0 -42 -3
-46 -47 -75 -87 -57 -129 -141 -120 -240 6 -66 24 -105 69 -151 69 -69 184
-92 276 -54 52 21 124 100 140 153 18 60 14 122 -12 177 -24 52 -88 118 -125
130 -20 6 -21 13 -21 110 0 57 -3 111 -6 120 -14 35 -58 45 -194 45 l-130 0 0
85 0 85 183 0 184 0 24 26 c21 23 24 36 27 125 l4 99 258 0 258 0 12 -30 c28
-68 144 -140 226 -140 42 0 124 33 163 66 86 74 107 220 45 320 -44 72 -108
108 -199 112 -61 3 -79 0 -122 -21 -50 -26 -96 -71 -116 -114 l-10 -23 -259 0
-258 0 0 165 0 165 164 0 c96 0 176 5 196 11 52 19 60 52 60 252 l0 173 52 34
c77 51 111 120 106 216 -3 58 -9 80 -33 120 -87 139 -271 161 -386 45 -116
-115 -96 -297 43 -386 l47 -30 0 -132 1 -133 -124 0 -124 0 -4 99 c-3 89 -6
102 -27 125 -23 25 -30 26 -123 26 l-98 0 0 219 0 219 43 25 c74 44 117 122
117 213 0 97 -45 172 -131 218 -92 51 -204 38 -281 -32 -61 -55 -82 -104 -82
-187 0 -52 5 -80 21 -111 24 -45 89 -108 122 -119 21 -6 21 -11 21 -226 l0
-219 -170 0 -170 0 0 684 0 685 -22 26 c-25 28 -56 34 -153 29z m5 -458 l0
-294 -45 -6 c-64 -10 -82 -30 -102 -115 -16 -67 -21 -76 -47 -84 -27 -9 -32
-6 -86 52 -43 46 -63 61 -84 61 -34 0 -203 -86 -271 -138 -68 -52 -75 -75 -46
-163 l23 -71 -22 -23 -22 -23 -56 19 c-75 26 -123 25 -149 -3 -37 -42 -104
-148 -139 -222 -43 -91 -40 -109 33 -176 52 -48 55 -53 47 -82 -9 -30 -14 -33
-89 -49 -116 -24 -115 -23 -115 -234 0 -211 -1 -210 115 -234 75 -16 80 -19
89 -49 8 -29 5 -34 -47 -82 -73 -67 -76 -85 -33 -176 35 -74 102 -180 139
-222 26 -28 74 -29 149 -3 l56 19 21 -22 21 -22 -22 -73 c-27 -90 -20 -112 47
-163 68 -52 237 -138 271 -138 21 0 41 15 84 61 54 58 59 61 86 52 26 -8 31
-17 47 -84 20 -85 38 -105 102 -115 l45 -6 0 -464 0 -464 -295 0 -295 0 -6 28
c-41 192 -117 340 -349 677 -156 227 -213 321 -300 500 -276 568 -393 1133
-320 1550 28 160 114 380 203 519 274 428 750 701 1307 749 22 2 43 4 48 5 4
1 7 -130 7 -292z m629 -221 c81 -41 34 -173 -53 -151 -79 20 -89 125 -15 155
33 13 36 13 68 -4z m-629 -460 c0 -120 -1 -125 -21 -125 -44 0 -147 -33 -225
-71 -374 -183 -527 -640 -339 -1012 75 -148 193 -264 339 -336 78 -38 181 -71
225 -71 20 0 21 -4 20 -127 0 -71 -3 -121 -6 -113 -12 39 -28 60 -52 69 -61
24 -193 53 -214 47 -13 -3 -45 -28 -71 -56 -26 -27 -49 -50 -53 -50 -3 0 -31
16 -63 35 l-58 35 19 61 c30 96 28 101 -60 189 -43 44 -89 82 -102 85 -13 3
-51 -3 -83 -15 -33 -11 -62 -20 -66 -20 -4 0 -24 28 -44 62 l-37 62 55 51 c65
60 67 72 35 192 -33 127 -36 131 -142 153 l-57 11 0 74 0 74 57 11 c106 22
109 26 142 153 32 120 30 132 -35 192 l-55 52 36 61 c20 34 40 62 44 62 4 0
34 -9 67 -20 32 -12 69 -18 82 -15 12 3 58 41 102 85 90 89 93 99 61 193 l-20
56 58 36 c32 19 61 35 64 35 4 0 27 -23 53 -50 26 -28 58 -53 71 -56 13 -4 50
1 81 9 31 9 76 21 99 27 47 12 83 43 83 72 0 10 2 18 5 18 3 0 5 -56 5 -125z
m1323 26 c25 -24 26 -84 3 -110 -68 -75 -188 15 -130 97 31 45 89 50 127 13z
m-1323 -897 l0 -577 -42 7 c-81 12 -207 83 -284 160 -230 231 -229 590 2 822
88 89 214 155 307 163 16 1 17 -33 17 -575z m760 1 l0 -415 -295 0 -295 0 0
415 0 415 295 0 295 0 0 -415z m954 -179 c60 -25 68 -103 14 -140 -33 -24 -72
-20 -102 10 -49 50 -21 127 52 143 1 1 18 -5 36 -13z m-915 -1011 c32 -16 41
-33 41 -73 -1 -55 -55 -90 -110 -71 -55 20 -69 91 -25 134 28 29 54 31 94 10z
m38 -1187 c29 -27 30 -77 4 -109 l-19 -24 -725 -3 -725 -2 -28 24 c-37 31 -39
89 -5 117 22 18 55 19 749 19 l726 0 23 -22z m18 -331 c38 -32 38 -92 0 -124
l-26 -23 -743 0 c-724 0 -743 0 -763 20 -41 38 -42 92 -1 130 21 20 32 20 764
20 l743 0 26 -23z" />
        <path d="M4780 4995 l0 -85 -80 0 -80 0 0 -85 0 -85 80 0 80 0 0 -80 0 -80 85
0 85 0 0 80 0 80 85 0 85 0 0 85 0 85 -85 0 -85 0 0 85 0 85 -85 0 -85 0 0
-85z m170 -170 l0 -85 -85 0 -85 0 0 85 0 85 85 0 85 0 0 -85z" />
        <path d="M2776 4998 c-4 -35 -10 -72 -12 -84 -5 -19 1 -22 65 -32 101 -17 96
-20 109 53 7 35 15 71 18 78 4 11 -11 17 -58 26 -35 6 -75 14 -89 17 -26 5
-26 3 -33 -58z" />
        <path d="M3109 4913 c-12 -38 -24 -73 -26 -79 -4 -10 144 -71 151 -63 2 2 18
37 35 77 l30 73 -22 8 c-12 4 -48 18 -80 30 -32 11 -59 21 -62 21 -2 0 -13
-30 -26 -67z" />
        <path d="M3448 4817 c-9 -12 -27 -45 -41 -73 l-25 -50 69 -42 69 -41 47 69
c25 39 44 72 42 73 -4 4 -129 78 -140 84 -4 1 -13 -7 -21 -20z" />
        <path d="M3703 4578 c-57 -70 -58 -65 19 -130 l49 -41 59 58 58 58 -60 56
c-33 31 -64 57 -67 59 -4 1 -30 -26 -58 -60z" />
        <path d="M3970 4357 c-14 -12 -41 -34 -59 -48 l-34 -27 47 -65 47 -66 69 42
c38 23 68 47 65 53 -8 24 -90 133 -100 133 -5 0 -21 -10 -35 -22z" />
        <path d="M4117 4044 l-67 -34 16 -38 c8 -20 23 -54 31 -75 9 -21 21 -36 27
-33 6 2 41 15 79 27 76 26 75 19 26 127 -15 34 -31 62 -36 62 -4 -1 -38 -17
-76 -36z" />
        <path d="M4225 3723 c-33 -9 -61 -17 -63 -18 -1 -1 3 -37 10 -79 l12 -78 75 7
c42 4 80 10 84 14 4 4 2 43 -5 87 -16 91 -17 92 -113 67z" />
        <path d="M4196 3344 c-3 -26 -6 -64 -6 -85 0 -34 3 -39 24 -39 12 0 51 -3 85
-6 l61 -7 0 92 0 91 -79 0 -78 0 -7 -46z" />
        <path d="M3966 2340 c-15 -38 -25 -73 -22 -78 10 -16 137 -65 145 -56 11 12
63 146 58 150 -5 5 -136 54 -146 54 -4 0 -20 -31 -35 -70z" />
        <path d="M3825 2031 c-39 -79 -42 -73 52 -120 l63 -31 35 70 c19 38 35 74 35
79 0 9 -123 71 -141 71 -5 0 -24 -31 -44 -69z" />
        <path d="M3661 1747 c-22 -35 -41 -66 -41 -69 0 -7 131 -100 135 -96 1 2 23
34 48 73 l47 70 -68 42 c-37 24 -70 43 -73 43 -4 0 -25 -28 -48 -63z" />
        <path d="M3467 1461 c-34 -51 -43 -72 -34 -79 7 -5 38 -25 70 -45 l57 -37 47
70 c25 39 44 72 42 73 -24 19 -126 87 -130 87 -4 0 -27 -31 -52 -69z" />
        <path d="M3321 1226 c-12 -14 -73 -148 -69 -151 11 -8 149 -57 152 -54 17 19
66 133 59 140 -4 4 -36 23 -70 42 -47 27 -64 32 -72 23z" />
        <path d="M170 465 l0 -85 -85 0 -85 0 0 -85 0 -85 85 0 85 0 0 -85 0 -86 83 3
82 3 3 83 3 82 79 0 80 0 0 85 0 85 -80 0 -79 0 -3 83 -3 82 -82 3 -83 3 0
-86z m170 -170 l0 -85 -85 0 -85 0 0 85 0 85 85 0 85 0 0 -85z" />
    </g>
</svg>