<?xml version="1.0" standalone="no"?>
<!DOCTYPE svg PUBLIC "-//W3C//DTD SVG 20010904//EN" "http://www.w3.org/TR/2001/REC-SVG-20010904/DTD/svg10.dtd">
<svg version="1.0" xmlns="http://www.w3.org/2000/svg" width="512.000000pt" height="512.000000pt"
        viewBox="0 0 512.000000 512.000000" preserveAspectRatio="xMidYMid meet">

        <g transform="translate(0.000000,512.000000) scale(0.100000,-0.100000)" fill="#08774e" stroke="none">
                <path d="M1579 4661 l-29 -30 2 -701 3 -702 24 -19 c22 -18 43 -19 355 -19
l333 0 111 -208 c61 -115 121 -217 132 -227 26 -23 74 -24 100 0 11 10 70 112
132 227 l112 208 332 0 c312 0 333 1 355 19 l24 19 3 702 2 701 -29 30 -29 29
-952 0 -952 0 -29 -29z m1821 -721 l0 -590 -305 0 c-205 0 -312 -4 -329 -11
-17 -8 -50 -59 -112 -175 -49 -90 -91 -164 -94 -164 -3 0 -45 74 -94 164 -62
116 -95 167 -112 175 -17 7 -124 11 -329 11 l-305 0 0 590 0 590 840 0 840 0
0 -590z" />
                <path d="M2001 4324 c-29 -37 -26 -70 8 -105 l29 -29 522 0 522 0 29 29 c34
35 37 68 8 105 l-20 26 -539 0 -539 0 -20 -26z" />
                <path d="M2024 4008 c-47 -22 -56 -86 -19 -123 l24 -25 531 0 531 0 24 25 c39
38 27 102 -22 124 -32 15 -1039 14 -1069 -1z" />
                <path d="M2043 3683 c-29 -6 -63 -49 -63 -80 0 -14 13 -37 29 -54 l29 -29 522
0 522 0 29 29 c36 36 37 70 5 108 l-24 28 -514 1 c-282 1 -523 0 -535 -3z" />
                <path d="M1350 2850 c-212 -37 -371 -212 -387 -425 -15 -192 85 -364 263 -451
71 -36 85 -39 178 -42 84 -3 112 0 165 18 156 52 265 168 306 325 67 260 -103
526 -369 574 -66 12 -90 12 -156 1z m220 -196 c59 -32 121 -103 141 -161 22
-62 16 -170 -11 -228 -31 -62 -89 -121 -149 -148 -67 -31 -188 -31 -252 1
-124 61 -195 200 -169 328 16 75 66 153 124 192 65 43 98 52 186 48 61 -2 86
-8 130 -32z" />
                <path d="M3630 2850 c-339 -44 -511 -432 -319 -719 50 -75 104 -120 195 -163
66 -32 74 -33 190 -33 119 0 121 0 196 37 270 134 350 464 170 701 -100 130
-266 198 -432 177z m174 -180 c154 -58 232 -245 166 -398 -30 -70 -113 -146
-182 -167 -111 -33 -208 -11 -291 65 -105 96 -131 227 -69 353 70 141 227 202
376 147z" />
                <path d="M983 1819 c-235 -40 -436 -216 -520 -454 l-28 -80 -3 -394 c-3 -420
-3 -428 45 -450 17 -8 295 -11 959 -11 l935 0 24 25 25 24 0 378 c0 430 -5
466 -71 599 -77 156 -220 281 -390 340 l-84 29 -420 2 c-231 0 -443 -3 -472
-8z m918 -177 c135 -45 244 -139 305 -265 48 -101 55 -164 52 -492 l-3 -290
-85 0 -85 0 -5 288 c-5 289 -5 289 -29 308 -32 26 -77 24 -106 -6 l-25 -24 0
-286 0 -285 -492 2 -493 3 -5 288 c-5 289 -5 289 -29 308 -32 26 -77 24 -106
-6 l-25 -24 0 -286 0 -286 -87 3 -88 3 0 320 c0 302 1 324 22 390 61 192 220
328 418 355 33 5 227 7 430 6 349 -2 374 -4 436 -24z" />
                <path d="M3275 1819 c-278 -42 -497 -244 -559 -516 -13 -60 -16 -136 -16 -448
l0 -376 25 -24 24 -25 935 0 c664 0 942 3 959 11 14 6 30 22 36 36 18 39 15
730 -4 818 -51 242 -241 440 -490 511 -51 15 -117 18 -455 20 -217 1 -422 -2
-455 -7z m870 -174 c171 -45 315 -185 361 -352 17 -60 19 -106 19 -383 l0
-315 -87 -3 -88 -3 0 286 0 286 -25 24 c-29 30 -74 32 -106 6 -24 -19 -24 -19
-29 -308 l-5 -288 -492 -3 -493 -2 0 285 0 286 -25 24 c-29 30 -74 32 -106 6
-24 -19 -24 -19 -29 -308 l-5 -288 -85 0 -85 0 -3 290 c-2 179 1 315 8 355 33
193 180 353 373 405 79 21 819 21 902 0z" />
        </g>
</svg>