<?xml version="1.0" standalone="no"?>
<!DOCTYPE svg PUBLIC "-//W3C//DTD SVG 20010904//EN" "http://www.w3.org/TR/2001/REC-SVG-20010904/DTD/svg10.dtd">
<svg version="1.0" xmlns="http://www.w3.org/2000/svg" width="512.000000pt" height="512.000000pt"
    viewBox="0 0 512.000000 512.000000" preserveAspectRatio="xMidYMid meet">

    <g transform="translate(0.000000,512.000000) scale(0.100000,-0.100000)" fill="#08774e" stroke="none">
        <path d="M2365 4469 c-724 -75 -1361 -580 -1600 -1269 -74 -215 -105 -397
-105 -634 0 -309 64 -585 201 -859 l49 -98 -134 -491 c-75 -271 -134 -493
-133 -494 1 0 229 59 506 132 l504 133 76 -38 c164 -83 370 -146 572 -175 137
-20 402 -21 534 -1 879 131 1543 825 1635 1705 35 343 -30 710 -184 1025 -99
202 -219 367 -388 531 -117 114 -168 155 -295 238 -357 234 -804 340 -1238
295z m346 -320 c346 -35 642 -161 902 -384 370 -319 582 -836 538 -1316 -37
-400 -188 -728 -461 -999 -63 -63 -154 -143 -203 -177 -178 -125 -403 -221
-620 -265 -159 -32 -454 -32 -604 0 -181 39 -357 107 -516 198 l-47 28 -296
-78 c-163 -42 -298 -75 -300 -74 -2 2 32 134 76 292 l79 288 -49 82 c-144 239
-215 480 -227 762 -34 840 589 1555 1432 1643 117 12 180 12 296 0z" />
        <path d="M1825 3436 c-42 -18 -135 -123 -168 -188 -93 -185 -72 -408 59 -631
114 -196 345 -463 528 -611 178 -144 326 -223 566 -304 212 -70 351 -70 496 3
146 74 202 149 226 299 18 114 20 112 -197 216 -219 106 -269 124 -295 110
-10 -5 -47 -47 -83 -92 -102 -130 -122 -148 -157 -148 -41 0 -217 86 -309 151
-39 27 -104 80 -143 117 -114 108 -258 303 -258 350 0 11 26 51 59 89 59 68
101 139 101 168 0 29 -173 436 -196 460 -21 23 -30 25 -111 25 -50 -1 -101 -6
-118 -14z" />
    </g>
</svg>