<?xml version="1.0" encoding="UTF-8"?>
<svg version="1.1" xmlns="http://www.w3.org/2000/svg" width="512" height="512">
    <path
        d="M0 0 C0.90332062 -0.00701431 1.80664124 -0.01402863 2.73733521 -0.02125549 C5.63223319 -0.03864633 8.52692671 -0.04510661 11.421875 -0.046875 C12.41052551 -0.04754974 13.39917603 -0.04822449 14.41778564 -0.04891968 C28.55712256 -0.033563 42.28505804 0.31666714 56.171875 3.203125 C57.03683594 3.36941406 57.90179688 3.53570313 58.79296875 3.70703125 C123.78912037 16.29595588 179.10986309 54.80508057 216.171875 109.203125 C218.99386849 113.51844495 221.62628707 117.93232002 224.16308594 122.42041016 C225.14306341 124.15220964 226.14544227 125.87127287 227.1484375 127.58984375 C244.59393207 158.18889405 255.08621312 195.58355042 255.41015625 230.85546875 C255.4199501 231.74502762 255.42974396 232.63458649 255.43983459 233.55110168 C255.61379082 253.45279839 255.36192823 272.65917557 251.171875 292.203125 C250.85839111 293.71495361 250.85839111 293.71495361 250.53857422 295.25732422 C241.88228101 335.98404907 222.70197435 373.09660792 195.171875 404.203125 C194.40101563 405.08484375 193.63015625 405.9665625 192.8359375 406.875 C184.29641069 416.52316713 175.30541335 425.24105916 165.171875 433.203125 C163.67527344 434.40775391 163.67527344 434.40775391 162.1484375 435.63671875 C153.91112076 442.19982594 145.2337072 447.84746167 136.171875 453.203125 C135.45870117 453.62625977 134.74552734 454.04939453 134.01074219 454.48535156 C109.87856828 468.67631785 83.64146427 477.96215177 56.171875 483.203125 C55.33688477 483.36828613 54.50189453 483.53344727 53.64160156 483.70361328 C26.61965669 488.82116532 -4.88893524 488.72583118 -31.828125 483.203125 C-33.32303467 482.89713379 -33.32303467 482.89713379 -34.84814453 482.58496094 C-59.21461432 477.43029897 -85.61688858 470.36941784 -106.203125 455.828125 C-109.53400492 453.83412832 -111.20072454 453.12546078 -115.09960938 453.60809326 C-116.31970703 453.95495178 -117.53980469 454.3018103 -118.796875 454.65917969 C-119.48474091 454.84843395 -120.17260681 455.03768822 -120.88131714 455.23267746 C-122.39456601 455.65094335 -123.90547336 456.07774974 -125.41424561 456.5118866 C-127.8989955 457.22341947 -130.39032732 457.90526504 -132.88525391 458.5802002 C-138.58099517 460.12414625 -144.26707423 461.70205438 -149.953125 463.28125 C-152.03771219 463.85863363 -154.1223485 464.43583993 -156.20703125 465.01287842 C-161.6390388 466.51695733 -167.07038487 468.02341095 -172.50158691 469.53039551 C-178.06575708 471.07380904 -183.63056299 472.61492687 -189.1953125 474.15625 C-200.07353275 477.16965491 -210.95105413 480.18557418 -221.828125 483.203125 C-223.18010537 479.14718389 -221.9214849 476.27413824 -220.72607422 472.32958984 C-220.49041245 471.52740524 -220.25475067 470.72522064 -220.01194763 469.89872742 C-219.22708764 467.23467665 -218.42998369 464.57445282 -217.6328125 461.9140625 C-217.0820969 460.0535792 -216.5321512 458.19286785 -215.98294067 456.3319397 C-214.52931427 451.41409421 -213.06533625 446.49938898 -211.59918213 441.58526611 C-210.12775086 436.64718646 -208.66575394 431.70631753 -207.203125 426.765625 C-205.29314745 420.31671128 -203.38082025 413.86851619 -201.46058846 407.42264748 C-200.96416717 405.75409851 -200.46904971 404.085161 -199.97533989 402.41580772 C-198.77880677 398.37254962 -197.56329627 394.33697999 -196.30865479 390.31134033 C-196.06977098 389.53291086 -195.83088718 388.75448139 -195.58476448 387.95246315 C-195.13565011 386.49009031 -194.67882293 385.03005474 -194.21282768 383.57297325 C-192.78563908 378.88416101 -192.67711517 376.41918581 -194.90039062 372.13867188 C-195.34060547 371.40712891 -195.78082031 370.67558594 -196.234375 369.921875 C-196.72647461 369.09067139 -197.21857422 368.25946777 -197.72558594 367.40307617 C-198.25442383 366.51209229 -198.78326172 365.6211084 -199.328125 364.703125 C-213.366749 340.49464117 -222.54736733 314.6712521 -227.828125 287.203125 C-227.99183594 286.41550781 -228.15554687 285.62789063 -228.32421875 284.81640625 C-233.76508267 257.97181321 -233.39498923 225.98544033 -227.828125 199.203125 C-227.57869141 197.90568359 -227.57869141 197.90568359 -227.32421875 196.58203125 C-216.46256093 140.5036942 -185.31064703 87.28114853 -139.828125 52.203125 C-139.2820459 51.78063477 -138.7359668 51.35814453 -138.17333984 50.92285156 C-128.18202105 43.24498717 -117.71279221 36.53938659 -106.828125 30.203125 C-106.21565918 29.8412207 -105.60319336 29.47931641 -104.97216797 29.10644531 C-74.10835345 11.02251699 -35.8170122 0.18720589 0 0 Z "
        fill="#0a9c66" transform="translate(243.828125,12.796875)" />
    <path
        d="M0 0 C0.89847656 -0.01998047 1.79695313 -0.03996094 2.72265625 -0.06054688 C8.81483618 -0.05611297 13.47390098 0.87556396 18.5 4.4375 C22.01758418 7.99134793 24.05374903 12.1852033 26.125 16.6875 C26.45838379 17.40405762 26.79176758 18.12061523 27.13525391 18.85888672 C30.25114919 25.67624333 33.0808841 32.6082108 35.875 39.5625 C36.30377441 40.62887695 36.73254883 41.69525391 37.17431641 42.79394531 C42.41723589 56.02358577 45.02044148 67.83560338 39.7578125 81.69140625 C36.21716628 89.42145063 31.06717136 96.00922998 24.5 101.4375 C23.84 101.4375 23.18 101.4375 22.5 101.4375 C29.87724852 115.32408545 38.82482169 127.82045488 49.55078125 139.3359375 C51.29527706 141.21677667 52.93467568 143.14368031 54.5625 145.125 C69.95747743 163.18802566 92.46566903 175.27047443 113.5 185.4375 C114.16 185.7675 114.82 186.0975 115.5 186.4375 C118.87357334 186.93820321 118.87357334 186.93820321 122.5 186.4375 C124.94994035 184.29718791 124.94994035 184.29718791 127.5 181.4375 C128.57722827 180.30903914 129.6554079 179.18148591 130.734375 178.0546875 C131.90806542 176.80899967 133.07987549 175.56153803 134.25 174.3125 C134.86399658 173.65741455 135.47799316 173.0023291 136.1105957 172.32739258 C140.54862267 167.55303683 144.71460212 162.64864949 148.73046875 157.51171875 C150.5 155.4375 150.5 155.4375 153.5 153.4375 C159.52136805 153.67784575 164.25835521 155.88988391 169.58984375 158.4453125 C170.45203018 158.84902069 171.31421661 159.25272888 172.20252991 159.66867065 C174.9517167 160.95790575 177.69475308 162.25962877 180.4375 163.5625 C183.1401477 164.83712807 185.84403655 166.10906648 188.54873657 167.3793335 C190.3210665 168.21260021 192.09205473 169.04872688 193.86166382 169.88775635 C197.94454346 171.815022 202.0319868 173.68673544 206.20751953 175.40527344 C206.93620743 175.70795135 207.66489532 176.01062927 208.41566467 176.32247925 C209.75229282 176.87115555 211.09460147 177.40631142 212.44358826 177.92385864 C217.26932985 179.90799494 219.5668976 182.25723292 222.5 186.4375 C224.91013252 198.66779982 220.34672353 211.38863553 214.25 221.875 C204.73025651 235.8146244 189.16198573 243.62063597 172.96826172 247.03833008 C135.18056752 253.14939635 91.48684994 234.8206598 61.0625 213.3828125 C57.12068143 210.50921978 53.28948158 207.50834051 49.5 204.4375 C48.93909668 203.98552246 48.37819336 203.53354492 47.80029297 203.06787109 C38.63867343 195.63270786 30.00095947 187.61312155 21.5 179.4375 C20.38987549 178.37039795 20.38987549 178.37039795 19.25732422 177.28173828 C9.53966961 167.88671225 0.38699078 158.43020172 -7.5 147.4375 C-7.9542334 146.81166016 -8.4084668 146.18582031 -8.87646484 145.54101562 C-30.25612414 115.91460046 -48.23147144 81.3192607 -44.109375 43.890625 C-40.88101187 28.90770892 -31.86337525 14.78784763 -20.53125 4.69140625 C-13.84952703 0.56672726 -7.66958605 -0.06052041 0 0 Z "
        fill="#3F3F3F" transform="translate(167.5,134.5625)" />
</svg>