<?xml version="1.0" standalone="no"?>
<!DOCTYPE svg PUBLIC "-//W3C//DTD SVG 20010904//EN" "http://www.w3.org/TR/2001/REC-SVG-20010904/DTD/svg10.dtd">
<svg version="1.0" xmlns="http://www.w3.org/2000/svg" width="722.000000pt" height="375.000000pt"
    viewBox="0 0 722.000000 375.000000" preserveAspectRatio="xMidYMid meet">

    <g transform="translate(0.000000,375.000000) scale(0.100000,-0.100000)" fill="#0a9c66" stroke="none">
        <path d="M2482 2801 c-39 -10 -50 -19 -36 -29 7 -4 30 -38 54 -77 72 -120 111
-147 192 -131 58 11 62 18 39 62 -39 75 -83 111 -166 138 l-50 15 50 -5 c28
-3 69 -14 92 -24 23 -10 43 -17 45 -17 2 1 2 1 2 -1 -1 -1 12 -17 27 -33 16
-17 36 -52 44 -78 l15 -46 -3 51 c-8 106 -82 172 -204 179 -37 2 -83 0 -101
-4z" />
        <path d="M5705 2785 c-5 -2 -23 -6 -39 -10 -28 -6 -28 -6 -10 -26 11 -12 40
-55 65 -97 63 -104 109 -127 201 -101 l38 10 -25 49 c-31 62 -89 111 -157 132
-37 11 -45 16 -27 17 45 2 128 -29 165 -61 37 -33 62 -73 75 -123 7 -22 8 -16
4 23 -10 121 -97 193 -230 191 -27 0 -54 -2 -60 -4z" />
        <path d="M1358 2711 c-132 -42 -246 -144 -318 -283 -28 -53 -36 -77 -24 -67
93 80 187 65 420 -66 144 -81 277 -81 445 0 l36 17 -36 32 c-86 76 -213 139
-336 166 -59 14 -219 17 -290 7 -41 -5 -45 -5 -25 4 65 29 330 21 440 -13 127
-39 272 -129 358 -224 59 -64 92 -80 92 -46 0 21 -116 151 -153 171 -14 7 -28
25 -32 39 -16 65 -108 176 -186 224 -92 56 -278 75 -391 39z" />
        <path d="M2873 2665 c-17 -7 -39 -27 -47 -44 -22 -42 -20 -49 5 -17 26 34 70
56 106 55 l28 -1 -27 -8 c-37 -11 -68 -34 -89 -67 -25 -37 -24 -39 10 -46 48
-10 69 3 115 68 l44 63 -30 6 c-46 9 -80 7 -115 -9z" />
        <path d="M6075 2642 c-40 -25 -51 -40 -59 -82 l-7 -35 20 42 c21 46 54 67 116
76 l40 6 -51 -23 c-46 -21 -94 -69 -94 -94 0 -14 48 -20 80 -10 35 11 106 124
84 132 -31 12 -100 5 -129 -12z" />
        <path d="M3210 2505 c0 -3 9 -23 20 -45 11 -21 31 -94 45 -162 32 -160 42
-192 72 -255 35 -73 94 -137 155 -167 101 -51 152 -28 137 63 -9 56 -47 151
-61 151 -5 0 -7 4 -4 9 3 4 -1 17 -9 27 -28 36 -15 46 14 11 15 -20 31 -34 34
-31 3 3 5 -1 4 -8 -1 -7 10 -35 23 -63 36 -78 50 -141 57 -260 3 -60 10 -115
15 -122 5 -7 5 -14 -2 -18 -13 -8 -3 -25 15 -25 9 0 15 27 20 103 12 159 39
241 103 306 32 32 42 17 10 -17 -82 -88 -62 -149 36 -108 50 21 91 70 146 174
l49 92 -50 0 c-60 0 -141 -19 -133 -31 3 -5 -2 -6 -10 -3 -10 4 -31 -10 -59
-38 -42 -43 -59 -74 -71 -130 -11 -48 -23 -31 -30 40 -23 242 -171 408 -426
477 -36 10 -73 22 -82 27 -10 5 -18 6 -18 3z" />
        <path d="M2746 2475 c-79 -28 -145 -79 -197 -154 -86 -122 -96 -356 -21 -495
34 -63 107 -138 160 -165 142 -72 325 -64 443 20 16 11 26 25 23 31 -4 6 -2 8
4 4 12 -7 65 64 88 119 21 52 16 56 -10 7 -31 -60 -99 -127 -159 -157 -43 -21
-65 -25 -138 -25 -51 0 -104 6 -128 15 -183 64 -277 280 -226 518 38 182 142
283 305 297 l75 7 -75 1 c-56 1 -92 -4 -144 -23z" />
        <path d="M4450 2486 c-223 -62 -341 -288 -285 -549 28 -135 126 -252 247 -298
82 -31 225 -34 306 -6 74 26 153 102 192 183 40 85 38 91 -5 18 -73 -123 -146
-167 -287 -172 -86 -3 -103 -1 -150 20 -65 30 -144 106 -180 173 -50 94 -56
283 -13 405 40 112 137 204 242 229 35 8 36 9 8 9 -16 0 -50 -5 -75 -12z" />
        <path d="M4578 2493 c12 -2 32 -2 45 0 12 2 2 4 -23 4 -25 0 -35 -2 -22 -4z" />
        <path d="M5820 2486 c-224 -65 -340 -289 -286 -548 41 -192 180 -311 381 -325
266 -18 455 168 455 447 0 194 -97 349 -258 411 -70 27 -223 35 -292 15z m245
-20 c154 -72 234 -266 206 -496 -31 -245 -213 -395 -413 -340 -47 14 -113 63
-154 117 -101 133 -119 385 -38 551 64 130 153 192 279 192 53 0 82 -6 120
-24z" />
        <path d="M4680 2475 c81 -37 114 -97 114 -207 l0 -77 21 29 c42 56 58 96 51
123 -13 55 -109 125 -194 143 -22 4 -20 2 8 -11z" />
        <path d="M5040 2471 l35 -18 3 -379 c1 -209 0 -388 -2 -400 -3 -11 -20 -27
-38 -36 l-33 -17 85 0 85 -1 0 417 0 418 35 17 35 18 -120 0 -120 0 35 -19z" />
        <path d="M3030 2461 c14 -11 28 -21 32 -21 4 0 18 -19 30 -42 18 -35 23 -59
23 -128 l0 -85 33 48 c46 67 52 87 37 124 -22 52 -83 98 -155 118 l-25 6 25
-20z" />
        <path d="M862 2208 c-11 -29 -25 -84 -32 -123 -8 -41 -23 -83 -37 -103 -13
-17 -38 -62 -56 -100 -77 -162 -31 -368 114 -513 100 -100 231 -149 396 -149
88 0 120 11 70 24 -39 9 -94 71 -113 128 -14 40 -19 87 -20 190 -1 112 -6 151
-23 206 -28 85 -89 166 -174 228 l-61 46 -9 -29 c-13 -45 -11 -252 3 -318 17
-83 64 -186 127 -279 30 -43 51 -81 48 -84 -3 -3 -6 -3 -8 -1 -1 2 -21 29 -44
59 -60 82 -108 174 -145 280 -31 92 -33 101 -33 250 1 144 3 161 28 234 15 44
26 85 23 93 -11 29 -35 11 -54 -39z" />
        <path d="M2148 2042 c7 -104 -55 -183 -207 -262 -95 -49 -166 -110 -209 -177
-33 -52 -72 -184 -72 -246 0 -44 1 -44 106 3 88 40 172 100 233 165 59 65 144
203 162 265 7 22 16 37 21 32 11 -11 -45 -139 -95 -217 -52 -83 -139 -178
-203 -226 -86 -64 -229 -130 -317 -147 -77 -15 -101 -32 -79 -54 7 -7 42 -2
114 17 66 18 144 30 218 34 165 10 223 33 318 127 55 54 81 90 107 146 67 145
67 261 3 416 -24 57 -81 157 -102 179 -1 2 0 -24 2 -55z" />
        <path d="M5505 1663 c-13 -15 -36 -28 -60 -33 -37 -7 -35 -8 23 -9 l62 -1 0
35 c0 19 -1 35 -2 34 -2 0 -12 -12 -23 -26z" />
        <path d="M2987 1443 c-46 -52 -17 -123 52 -123 20 0 42 5 49 12 28 28 1 39
-29 12 -41 -37 -95 25 -64 72 16 25 58 33 70 14 3 -5 13 -10 22 -10 14 0 14 3
-2 20 -23 25 -76 26 -98 3z" />
        <path d="M3161 1434 c-42 -53 -13 -114 53 -114 95 0 98 130 4 138 -29 2 -40
-2 -57 -24z m95 -19 c30 -45 -9 -95 -59 -76 -33 13 -43 46 -23 76 22 33 60 33
82 0z" />
        <path d="M3330 1390 c0 -78 17 -96 22 -22 l3 47 30 -47 c43 -68 55 -63 55 22
0 78 -17 96 -22 23 l-3 -48 -33 48 c-18 26 -37 47 -42 47 -6 0 -10 -31 -10
-70z" />
        <path d="M3502 1448 c-25 -25 -6 -68 30 -68 23 0 35 -27 19 -43 -9 -9 -17 -8
-32 1 -23 15 -39 8 -22 -9 6 -6 26 -9 44 -7 29 2 34 7 37 31 3 23 -2 30 -32
42 -20 9 -36 20 -36 25 0 17 29 23 45 10 20 -17 32 -5 15 15 -15 18 -51 20
-68 3z" />
        <path d="M3630 1402 c0 -66 11 -82 55 -82 17 0 36 5 43 12 14 14 16 128 2 128
-5 0 -10 -25 -10 -55 0 -45 -4 -56 -21 -65 -33 -18 -49 4 -49 66 0 30 -4 54
-10 54 -6 0 -10 -26 -10 -58z" />
        <path d="M3790 1390 l0 -70 38 1 c30 2 32 3 10 6 -27 4 -28 6 -28 69 0 36 -4
64 -10 64 -6 0 -10 -30 -10 -70z" />
        <path d="M3890 1450 c0 -5 9 -10 20 -10 18 0 20 -7 20 -60 0 -33 4 -60 10 -60
6 0 10 27 10 60 0 47 3 60 15 60 8 0 15 5 15 10 0 6 -20 10 -45 10 -25 0 -45
-4 -45 -10z" />
        <path d="M4040 1440 c-24 -24 -26 -67 -4 -98 20 -28 83 -31 107 -4 25 28 22
87 -5 106 -31 22 -74 20 -98 -4z m88 -12 c20 -20 14 -65 -10 -82 -12 -9 -26
-16 -30 -16 -15 0 -48 40 -48 59 0 41 59 68 88 39z" />
        <path d="M4210 1390 c0 -40 4 -70 10 -70 6 0 10 11 10 25 0 14 4 25 8 25 5 0
15 -11 22 -25 7 -14 20 -25 28 -25 12 0 11 5 -3 26 -16 25 -16 28 -1 36 19 11
21 49 4 66 -7 7 -27 12 -45 12 l-33 0 0 -70z m65 25 c0 -13 -8 -21 -21 -23
-16 -2 -23 3 -26 23 -5 23 -3 26 21 23 18 -2 26 -9 26 -23z" />
        <path d="M4350 1390 c0 -40 4 -70 10 -70 6 0 10 30 10 70 0 40 -4 70 -10 70
-6 0 -10 -30 -10 -70z" />
        <path d="M4441 1395 c-22 -62 -22 -101 0 -62 13 22 55 22 67 1 5 -9 14 -15 19
-13 13 5 -36 139 -52 139 -6 0 -22 -29 -34 -65z m52 -5 c4 -15 0 -20 -14 -20
-20 0 -23 8 -13 34 7 20 20 13 27 -14z" />
        <path d="M4699 1433 c-29 -74 -39 -107 -33 -112 3 -3 10 2 15 12 13 22 58 22
75 0 24 -34 23 -6 -2 60 -14 37 -30 67 -35 67 -5 0 -14 -12 -20 -27z m34 -43
c4 -15 0 -20 -15 -20 -14 0 -18 5 -14 16 3 9 6 20 6 25 0 17 17 1 23 -21z" />
        <path d="M4820 1390 c0 -56 3 -70 15 -70 10 0 15 11 16 38 l1 37 16 -37 c21
-47 37 -48 53 -3 7 19 17 35 21 35 4 0 8 -16 8 -35 0 -19 5 -35 10 -35 6 0 10
30 10 70 0 42 -4 70 -11 70 -5 0 -22 -26 -36 -57 l-27 -58 -24 58 c-35 80 -52
76 -52 -13z" />
        <path d="M5020 1390 l0 -70 39 0 c48 0 71 22 53 51 -9 13 -9 25 -3 37 16 29
-5 52 -49 52 l-40 0 0 -70z m68 33 c-2 -10 -13 -19 -26 -21 -17 -3 -22 2 -22
17 0 16 6 21 26 21 19 0 25 -5 22 -17z m5 -57 c7 -17 -11 -36 -35 -36 -13 0
-18 8 -18 25 0 20 5 25 24 25 13 0 26 -6 29 -14z" />
        <path d="M5160 1390 c0 -40 4 -70 10 -70 6 0 10 30 10 70 0 40 -4 70 -10 70
-6 0 -10 -30 -10 -70z" />
        <path d="M5230 1390 l0 -70 43 1 c38 1 39 2 12 8 -21 4 -31 13 -33 29 -3 18 1
22 22 22 14 0 26 5 26 10 0 6 -11 10 -25 10 -18 0 -25 5 -25 20 0 16 7 20 30
20 17 0 30 5 30 10 0 6 -18 10 -40 10 l-40 0 0 -70z" />
        <path d="M5359 1458 c-1 -2 -3 -33 -4 -70 -2 -51 1 -68 11 -68 8 0 14 17 16
48 l3 47 30 -47 c43 -68 55 -63 55 22 0 81 -17 95 -22 18 l-3 -51 -35 51 c-30
45 -46 59 -51 50z" />
        <path d="M5510 1450 c0 -5 9 -10 20 -10 18 0 20 -7 20 -60 0 -33 4 -60 10 -60
6 0 10 27 10 60 0 53 2 60 20 60 11 0 20 5 20 10 0 6 -22 10 -50 10 -27 0 -50
-4 -50 -10z" />
        <path d="M5670 1394 c-21 -62 -20 -99 1 -61 12 21 57 23 65 2 4 -8 12 -15 19
-15 9 0 5 20 -13 70 -13 39 -30 70 -38 70 -7 0 -22 -30 -34 -66z m47 -20 c-3
-3 -12 -4 -20 -2 -11 2 -12 9 -5 28 l10 25 11 -23 c5 -12 8 -25 4 -28z" />
        <path d="M5810 1390 l0 -70 38 1 c30 2 32 3 10 6 -27 4 -28 6 -28 69 0 36 -4
64 -10 64 -6 0 -10 -30 -10 -70z" />
    </g>
</svg>